<svg width="23" height="23" viewBox="0 0 23 23" fill="none" xmlns="http://www.w3.org/2000/svg">
<path fill-rule="evenodd" clip-rule="evenodd" d="M11.3406 18.0168C10.5086 18.0168 9.68481 17.8529 8.91619 17.5345C8.14757 17.2162 7.44918 16.7495 6.8609 16.1612C6.27263 15.5729 5.80598 14.8746 5.48761 14.1059C5.16923 13.3373 5.00537 12.5135 5.00537 11.6816C5.00537 10.8496 5.16923 10.0258 5.48761 9.25719C5.80598 8.48857 6.27263 7.79019 6.8609 7.20191C7.44918 6.61363 8.14757 6.14698 8.91619 5.82861C9.68481 5.51024 10.5086 5.34637 11.3406 5.34637C13.0208 5.34637 14.6321 6.01383 15.8202 7.20191C17.0083 8.38999 17.6758 10.0014 17.6758 11.6816C17.6758 13.3618 17.0083 14.9731 15.8202 16.1612C14.6321 17.3493 13.0208 18.0168 11.3406 18.0168ZM3.19531 11.6816C3.19531 10.6119 3.406 9.55274 3.81533 8.56451C4.22467 7.57629 4.82464 6.67836 5.581 5.922C6.33736 5.16565 7.23528 4.56567 8.22351 4.15634C9.21174 3.747 10.2709 3.53632 11.3406 3.53632C12.4102 3.53632 13.4694 3.747 14.4576 4.15634C15.4458 4.56567 16.3438 5.16565 17.1001 5.922C17.8565 6.67836 18.4565 7.57629 18.8658 8.56451C19.2751 9.55274 19.4858 10.6119 19.4858 11.6816C19.4858 13.8418 18.6277 15.9136 17.1001 17.4411C15.5726 18.9687 13.5008 19.8268 11.3406 19.8268C9.18031 19.8268 7.10853 18.9687 5.581 17.4411C4.05347 15.9136 3.19531 13.8418 3.19531 11.6816ZM10.4916 9.87151V15.3017H12.1859V9.87151H10.4916ZM10.6654 8.89408C10.8609 9.08233 11.0853 9.17645 11.3388 9.17645C11.5994 9.17645 11.8238 9.08233 12.0121 8.89408C12.2003 8.6986 12.2945 8.47415 12.2945 8.22074C12.2973 8.09497 12.2736 7.97001 12.225 7.854C12.1763 7.73799 12.1038 7.63352 12.0121 7.5474C11.9251 7.45685 11.8205 7.38508 11.7047 7.33652C11.5888 7.28795 11.4643 7.26362 11.3388 7.26503C11.0853 7.26503 10.8609 7.35915 10.6654 7.5474C10.5737 7.63352 10.5012 7.73799 10.4525 7.854C10.4039 7.97001 10.3802 8.09497 10.383 8.22074C10.383 8.47415 10.4772 8.6986 10.6654 8.89408Z" fill="#121117"/>
</svg>
