<svg width="26" height="40" viewBox="0 0 26 40" fill="none" xmlns="http://www.w3.org/2000/svg">
<path d="M13.1785 7.65625C20.0847 7.65625 25.7722 13.3438 25.7722 20.25C25.7722 27.207 20.0847 32.8438 13.1785 32.8438C6.22146 32.8438 0.584744 27.207 0.584744 20.25C0.584744 13.3438 6.22146 7.65625 13.1785 7.65625ZM13.1785 30.4062C18.7644 30.4062 23.3347 25.8867 23.3347 20.25C23.3347 14.6641 18.7644 10.0938 13.1785 10.0938C7.54178 10.0938 3.02224 14.6641 3.02224 20.25C3.02224 25.8867 7.54178 30.4062 13.1785 30.4062ZM18.6121 17.457C18.6121 20.8594 14.9051 20.9102 14.9051 22.1797V22.4844C14.9051 22.8398 14.6512 23.0938 14.2957 23.0938H12.0105C11.6551 23.0938 11.4012 22.8398 11.4012 22.4844V22.0781C11.4012 20.25 12.7722 19.5391 13.7879 18.9297C14.7019 18.4219 15.2605 18.1172 15.2605 17.457C15.2605 16.543 14.1433 15.9844 13.2293 15.9844C12.0613 15.9844 11.5027 16.543 10.741 17.5078C10.5379 17.7617 10.1316 17.8125 9.87771 17.6094L8.45584 16.543C8.20193 16.3398 8.15115 15.9844 8.35428 15.7305C9.52224 13.9531 11.0457 12.9375 13.4324 12.9375C15.9207 12.9375 18.6121 14.918 18.6121 17.457ZM15.3113 25.9375C15.3113 27.1562 14.3465 28.0703 13.1785 28.0703C11.9597 28.0703 11.0457 27.1562 11.0457 25.9375C11.0457 24.7695 11.9597 23.8047 13.1785 23.8047C14.3465 23.8047 15.3113 24.7695 15.3113 25.9375Z" fill="#958C8B"/>
</svg>
