<svg width="40" height="113" viewBox="0 0 40 113" fill="#000" xmlns="http://www.w3.org/2000/svg">
<path fill-rule="evenodd" clip-rule="evenodd" d="M20.8991 13.94C21.3604 13.481 21.9083 13.1182 22.511 12.8727C23.1137 12.6272 23.7592 12.5039 24.4099 12.5099C25.0607 12.516 25.7037 12.6513 26.3018 12.9079C26.8998 13.1645 27.4409 13.5374 27.8936 14.0049C28.3464 14.4724 28.7017 15.0252 28.939 15.6312C29.1763 16.2371 29.2909 16.8842 29.276 17.5348C29.2612 18.1854 29.1172 18.8266 28.8525 19.4211C28.5878 20.0156 28.2076 20.5516 27.7341 20.998L19.9981 28.25L12.2631 20.998C11.795 20.5503 11.4201 20.0144 11.1599 19.4213C10.8997 18.8282 10.7594 18.1894 10.747 17.5418C10.7346 16.8943 10.8503 16.2506 11.0876 15.6479C11.3249 15.0453 11.679 14.4955 12.1295 14.0301C12.5801 13.5648 13.1182 13.1932 13.7129 12.9366C14.3076 12.6801 14.9472 12.5436 15.5948 12.5351C16.2425 12.5267 16.8854 12.6463 17.4866 12.8873C18.0878 13.1282 18.6355 13.4856 19.0981 13.939L19.9981 14.839L20.8991 13.94ZM26.4331 15.353C26.1626 15.0824 25.8414 14.8678 25.4879 14.7214C25.1345 14.575 24.7556 14.4996 24.3731 14.4996C23.9905 14.4996 23.6116 14.575 23.2582 14.7214C22.9047 14.8678 22.5836 15.0824 22.3131 15.353L19.9981 17.668L17.6831 15.353C17.4087 15.0845 17.084 14.873 16.7276 14.7304C16.3712 14.5879 15.9901 14.5172 15.6063 14.5224C15.2224 14.5276 14.8434 14.6086 14.491 14.7608C14.1386 14.913 13.8198 15.1333 13.5528 15.4091C13.2858 15.6849 13.076 16.0108 12.9354 16.3679C12.7947 16.7251 12.7261 17.1065 12.7334 17.4903C12.7406 17.8741 12.8237 18.2527 12.9777 18.6042C13.1318 18.9558 13.3538 19.2735 13.6311 19.539L19.9981 25.509L26.3661 19.539C26.651 19.2719 26.8794 18.9502 27.0375 18.5931C27.1957 18.236 27.2804 17.8507 27.2867 17.4602C27.2929 17.0697 27.2206 16.6819 27.0739 16.3199C26.9273 15.9579 26.7093 15.6291 26.4331 15.353Z" fill="#121117"/>
</svg>
