<svg width="16" height="17" viewBox="0 0 16 17" fill="none" xmlns="http://www.w3.org/2000/svg">
<path fill-rule="evenodd" clip-rule="evenodd" d="M10.8665 7.1811C10.8665 9.60046 8.91243 11.5522 6.51369 11.5522C4.11495 11.5522 2.16085 9.60046 2.16085 7.1811C2.16085 4.76174 4.11495 2.81002 6.51369 2.81002C8.91243 2.81002 10.8665 4.76174 10.8665 7.1811ZM9.88057 12.4993C8.90749 13.1202 7.75247 13.4799 6.51369 13.4799C3.04505 13.4799 0.233154 10.6598 0.233154 7.1811C0.233154 3.70238 3.04505 0.882324 6.51369 0.882324C9.98233 0.882324 12.7942 3.70238 12.7942 7.1811C12.7942 8.71978 12.2441 10.1296 11.3304 11.2235L15.3234 15.2443L13.965 16.6121L9.88057 12.4993Z" fill="black"/>
</svg>
