<svg width="16" height="16" viewBox="0 0 16 16" fill="none" xmlns="http://www.w3.org/2000/svg">
<path fill-rule="evenodd" clip-rule="evenodd" d="M6.66667 2H5.33333V3.33333H2V4.66667H7.34333C7.31205 5.6803 7.00955 6.66701 6.46733 7.524L4.47133 5.52867L3.52867 6.47133L5.63933 8.582C5.44133 8.79 5.23533 8.982 5.02733 9.15867C4.31114 9.7605 3.51035 10.2538 2.65067 10.6227C2.58518 10.6504 2.51917 10.6768 2.45267 10.702L2.44467 10.7047L2.66667 11.3333L2.88933 11.962L2.892 11.9607L2.89667 11.9593L2.91333 11.9527C2.9993 11.9211 3.08444 11.8873 3.16867 11.8513C4.15315 11.4297 5.06993 10.8649 5.88933 10.1753C6.12267 9.97733 6.35533 9.76067 6.582 9.52467L7.52867 10.4713L8.47133 9.52867L7.42933 8.48667C8.20992 7.36272 8.64403 6.03467 8.678 4.66667H10V3.33333H6.66667V2ZM12.1687 13.3333L11.7707 12.2693H9.56L9.16 13.3333H7.8L9.976 7.73333H11.352L13.5287 13.3333H12.1687ZM10.6653 9.31533L11.3453 11.1333H9.98467L10.6647 9.31533H10.6653Z" fill="#4D4C5C"/>
</svg>
