<svg width="18" height="18" viewBox="0 0 18 18" fill="none" xmlns="http://www.w3.org/2000/svg">
<path d="M17.9774 6.91575C17.951 6.83273 17.901 6.7592 17.8335 6.70419C17.7659 6.64917 17.6838 6.61505 17.5972 6.606L11.7892 5.9895L9.41015 0.619504C9.26615 0.293254 8.7329 0.293254 8.5889 0.619504L6.2114 5.9895L0.402654 6.606C0.316001 6.61528 0.233895 6.64947 0.166274 6.70445C0.0986542 6.75942 0.0484202 6.83282 0.0216542 6.91575C-0.00516305 6.99899 -0.00739812 7.0882 0.0152171 7.17267C0.0378322 7.25714 0.0843374 7.3333 0.149154 7.392L4.4879 11.328L3.2759 17.0783C3.26215 17.1439 3.26313 17.2118 3.27877 17.2771C3.29441 17.3423 3.32433 17.4033 3.36636 17.4556C3.4084 17.5079 3.4615 17.5502 3.52186 17.5795C3.58221 17.6088 3.64832 17.6243 3.7154 17.625C3.79446 17.625 3.87211 17.6041 3.9404 17.5643L8.9999 14.6273L14.0602 17.5643C14.2132 17.6535 14.4052 17.643 14.5492 17.538C14.6195 17.4863 14.6734 17.4155 14.7045 17.3339C14.7356 17.2524 14.7426 17.1636 14.7247 17.0783L13.5127 11.3273L17.8522 7.39125C17.9166 7.33244 17.9627 7.25634 17.985 7.17202C18.0074 7.08771 18.005 6.99875 17.9782 6.91575H17.9774Z" fill="#FF6363"/>
</svg>
